<svg width="250" height="120" viewBox="0 0 250 120" fill="none" xmlns="http://www.w3.org/2000/svg">
<g clip-path="url(#clip0)">
<g filter="url(#filter0_d)">
<path d="M78.3539 57.6902L109.701 96.0511C110.01 96.5024 110.165 97.0289 110.165 97.6307C110.165 98.2324 109.914 98.7777 109.41 99.2667C108.907 99.7556 108.308 100 107.611 100H77.6573C75.8772 100 74.484 99.3983 73.4778 98.1948L53.2765 73.9372V96.9537C53.2765 97.7811 52.9669 98.4957 52.3478 99.0974C51.7286 99.6992 50.9933 100 50.1419 100H26.2255C25.3741 100 24.6388 99.6992 24.0196 99.0974C23.4004 98.4957 23.0908 97.7811 23.0908 96.9537V24.068C23.0908 23.2406 23.4004 22.5261 24.0196 21.9243C24.6388 21.3226 25.3741 21.0217 26.2255 21.0217H50.1419C50.9933 21.0217 51.7286 21.3226 52.3478 21.9243C52.9669 22.5261 53.2765 23.2406 53.2765 24.068V45.2793L71.6202 22.9398C72.7812 21.6611 74.2131 21.0217 75.9159 21.0217H103.896C104.592 21.0217 105.192 21.2662 105.695 21.7551C106.198 22.244 106.45 22.8081 106.45 23.4475C106.45 24.0868 106.256 24.6322 105.869 25.0835L78.3539 57.6902Z" fill="#403D7A"/>
<path d="M110.844 58.7445C110.844 62.4026 111.461 65.1687 112.697 67.0429C113.933 68.9158 115.946 69.8522 118.734 69.8522C121.501 69.8522 123.491 68.9208 124.704 67.0579C125.918 65.1963 126.525 62.4251 126.525 58.7445C126.525 55.0877 125.912 52.3448 124.686 50.5157C123.462 48.6867 121.456 47.7722 118.667 47.7722C115.9 47.7722 113.904 48.681 112.68 50.4988C111.456 52.3165 110.844 55.0651 110.844 58.7445ZM137.136 58.7445C137.136 64.7606 135.504 69.4655 132.239 72.8591C128.972 76.2526 124.426 77.9494 118.599 77.9494C114.948 77.9494 111.729 77.1728 108.94 75.6195C106.151 74.0663 104.007 71.8355 102.51 68.9271C101.013 66.0174 100.265 62.6232 100.265 58.7445C100.265 52.7071 101.887 48.0135 105.13 44.6638C108.373 41.3141 112.93 39.6393 118.802 39.6393C122.453 39.6393 125.673 40.4109 128.462 41.9541C131.252 43.4961 133.395 45.7106 134.892 48.5977C136.388 51.4848 137.136 54.867 137.136 58.7445ZM198.878 40.3332V77.2894H189.183V48.1671L188.64 50.2167C187.415 54.8664 186.316 58.3816 185.34 60.7622L178.607 77.2894H171.225L164.388 60.6287C163.413 58.2054 162.37 54.8012 161.26 50.4161L160.613 48.1671V77.2894H150.954V40.3332H165.238L171.769 56.1006C172.45 57.798 173.079 59.7487 173.657 61.9525C174.235 64.1551 174.626 66.0387 174.83 67.6032C175.578 64.2987 176.162 61.9243 176.583 60.4801C177.002 59.0372 177.461 57.7096 177.96 56.4974C178.458 55.2851 180.715 49.8971 184.729 40.3332H198.878ZM214.808 40.3332H249.365V77.2894H238.957V47.9038H225.182V77.2894H214.808V40.3332Z" fill="#6864B8"/>
<path d="M19.7039 20L49.8491 20.2031C53.3591 20.2257 54.5182 22.4747 52.4381 25.2201L36.5035 46.2547L0 46.0102L19.7039 20Z" fill="white"/>
<path d="M98.8777 82.9946H250V88.6359H103.425L98.8777 82.9946Z" fill="white"/>
</g>
</g>
<defs>
<filter id="filter0_d" x="-6" y="17" width="264" height="94" filterUnits="userSpaceOnUse" color-interpolation-filters="sRGB">
<feFlood flood-opacity="0" result="BackgroundImageFix"/>
<feColorMatrix in="SourceAlpha" type="matrix" values="0 0 0 0 0 0 0 0 0 0 0 0 0 0 0 0 0 0 127 0"/>
<feOffset dx="1" dy="4"/>
<feGaussianBlur stdDeviation="3.5"/>
<feColorMatrix type="matrix" values="0 0 0 0 0 0 0 0 0 0 0 0 0 0 0 0 0 0 0.4 0"/>
<feBlend mode="normal" in2="BackgroundImageFix" result="effect1_dropShadow"/>
<feBlend mode="normal" in="SourceGraphic" in2="effect1_dropShadow" result="shape"/>
</filter>
<clipPath id="clip0">
<rect width="250" height="120" fill="white"/>
</clipPath>
</defs>
</svg>
