<svg width="290" height="140" viewBox="0 0 290 140" fill="none" xmlns="http://www.w3.org/2000/svg">
<g filter="url(#filter0_d)">
<path d="M108.715 68.0607L132.205 96.6207C132.437 96.9567 132.553 97.3487 132.553 97.7967C132.553 98.2447 132.365 98.6507 131.988 99.0147C131.611 99.3787 131.161 99.5607 130.639 99.5607H108.193C106.859 99.5607 105.815 99.1127 105.061 98.2167L89.9233 80.1567V97.2927C89.9233 97.9087 89.6913 98.4407 89.2273 98.8887C88.7633 99.3367 88.2123 99.5607 87.5743 99.5607H69.6523C69.0143 99.5607 68.4633 99.3367 67.9993 98.8887C67.5353 98.4407 67.3033 97.9087 67.3033 97.2927V43.0287C67.3033 42.4127 67.5353 41.8807 67.9993 41.4327C68.4633 40.9847 69.0143 40.7607 69.6523 40.7607H87.5743C88.2123 40.7607 88.7633 40.9847 89.2273 41.4327C89.6913 41.8807 89.9233 42.4127 89.9233 43.0287V58.8207L103.669 42.1887C104.539 41.2367 105.612 40.7607 106.888 40.7607H127.855C128.377 40.7607 128.827 40.9427 129.204 41.3067C129.581 41.6707 129.769 42.0907 129.769 42.5667C129.769 43.0427 129.624 43.4487 129.334 43.7847L108.715 68.0607Z" fill="#403D7A"/>
<path d="M133.062 68.8456C133.062 71.5691 133.525 73.6285 134.451 75.0238C135.377 76.4182 136.885 77.1154 138.975 77.1154C141.048 77.1154 142.539 76.4219 143.448 75.035C144.358 73.649 144.813 71.5859 144.813 68.8456C144.813 66.1231 144.353 64.0809 143.435 62.7192C142.518 61.3575 141.014 60.6766 138.924 60.6766C136.851 60.6766 135.355 61.3533 134.438 62.7066C133.52 64.0599 133.062 66.1063 133.062 68.8456ZM152.764 68.8456C152.764 73.3247 151.541 76.8275 149.094 79.354C146.647 81.8805 143.24 83.1438 138.873 83.1438C136.138 83.1438 133.725 82.5656 131.635 81.4092C129.545 80.2528 127.939 78.5919 126.817 76.4266C125.695 74.2603 125.135 71.7333 125.135 68.8456C125.135 64.3507 126.35 60.8563 128.78 58.3624C131.21 55.8685 134.625 54.6216 139.026 54.6216C141.761 54.6216 144.174 55.1961 146.264 56.345C148.355 57.493 149.961 59.1417 151.082 61.2912C152.204 63.4407 152.764 65.9588 152.764 68.8456ZM199.031 55.1382V82.6524H191.766V60.9706L191.359 62.4966C190.442 65.9583 189.618 68.5754 188.887 70.3478L183.841 82.6524H178.309L173.186 70.2484C172.455 68.4443 171.674 65.9098 170.842 62.645L170.357 60.9706V82.6524H163.119V55.1382H173.823L178.716 66.8772C179.227 68.1409 179.699 69.5932 180.132 71.234C180.565 72.8739 180.858 74.2762 181.01 75.441C181.571 72.9807 182.009 71.213 182.324 70.1378C182.638 69.0635 182.982 68.0751 183.356 67.1726C183.73 66.2701 185.42 62.2586 188.429 55.1382H199.031ZM210.969 55.1382H236.864V82.6524H229.065V60.7746H218.742V82.6524H210.969V55.1382Z" fill="#6864B8"/>
<path d="M64.7653 40L87.3549 40.1512C89.9852 40.168 90.8537 41.8424 89.295 43.8864L77.3542 59.5468L50 59.3648L64.7653 40Z" fill="#F0FDA2"/>
<path d="M124.095 86.9H237.34V91.1H127.502L124.095 86.9Z" fill="#F0FDA2"/>
</g>
<defs>
<filter id="filter0_d" x="44" y="37" width="201.34" height="73.5607" filterUnits="userSpaceOnUse" color-interpolation-filters="sRGB">
<feFlood flood-opacity="0" result="BackgroundImageFix"/>
<feColorMatrix in="SourceAlpha" type="matrix" values="0 0 0 0 0 0 0 0 0 0 0 0 0 0 0 0 0 0 127 0"/>
<feOffset dx="1" dy="4"/>
<feGaussianBlur stdDeviation="3.5"/>
<feColorMatrix type="matrix" values="0 0 0 0 0 0 0 0 0 0 0 0 0 0 0 0 0 0 0.4 0"/>
<feBlend mode="normal" in2="BackgroundImageFix" result="effect1_dropShadow"/>
<feBlend mode="normal" in="SourceGraphic" in2="effect1_dropShadow" result="shape"/>
</filter>
</defs>
</svg>
