<?xml version="1.0" encoding="UTF-8" standalone="no"?><!-- Generator: Gravit.io --><svg xmlns="http://www.w3.org/2000/svg" xmlns:xlink="http://www.w3.org/1999/xlink" style="isolation:isolate" viewBox="0 0 120 100" width="120pt" height="100pt"><defs><clipPath id="_clipPath_A9ulpalCLWjkk2Fq2XGtjyrHCWZvu7JL"><rect width="120" height="100"/></clipPath></defs><g clip-path="url(#_clipPath_A9ulpalCLWjkk2Fq2XGtjyrHCWZvu7JL)"><clipPath id="_clipPath_H7kBPPlbMPfVnShcY2yElVrIHLIlu9rt"><rect x="0" y="0" width="120" height="100" transform="matrix(1,0,0,1,0,0)" fill="rgb(255,255,255)"/></clipPath><g clip-path="url(#_clipPath_H7kBPPlbMPfVnShcY2yElVrIHLIlu9rt)"><g><path d=" M 83.237 47.69 L 114.537 86.051 C 114.845 86.502 115 87.029 115 87.631 C 115 88.232 114.749 88.778 114.246 89.267 C 113.744 89.756 113.146 90 112.45 90 L 82.541 90 C 80.764 90 79.372 89.398 78.368 88.195 L 58.197 63.937 L 58.197 86.954 C 58.197 87.781 57.888 88.496 57.269 89.097 C 56.651 89.699 55.917 90 55.067 90 L 31.186 90 C 30.336 90 29.602 89.699 28.984 89.097 C 28.365 88.496 28.056 87.781 28.056 86.954 L 28.056 14.068 C 28.056 13.241 28.365 12.526 28.984 11.924 C 29.602 11.323 30.336 11.022 31.186 11.022 L 55.067 11.022 C 55.917 11.022 56.651 11.323 57.269 11.924 C 57.888 12.526 58.197 13.241 58.197 14.068 L 58.197 35.279 L 76.513 12.94 C 77.672 11.661 79.102 11.022 80.802 11.022 L 108.74 11.022 C 109.435 11.022 110.034 11.266 110.537 11.755 C 111.039 12.244 111.291 12.808 111.291 13.448 C 111.291 14.087 111.097 14.632 110.71 15.084 L 83.237 47.69 Z " fill="rgb(64,61,122)"/><path d=" M 24.674 10 L 54.774 10.203 C 58.279 10.226 59.437 12.475 57.36 15.22 L 41.449 36.255 L 5 36.01 L 24.674 10 Z " fill="rgb(255,255,255)"/></g></g></g></svg>