<svg width="130" height="110" viewBox="0 0 130 110" fill="none" xmlns="http://www.w3.org/2000/svg">
<path d="M90.6002 9.00469C84.7965 5.62501 77.9949 3.83838 70.9303 3.83838C57.8223 3.83838 45.9675 9.98007 39.9919 19.8667C39.0275 21.4629 37.2939 21.2623 35.6026 21.2623C25.1555 21.2623 15.8626 26.8798 12.4786 35.2408C12.1795 35.98 11.4475 36.5706 10.471 36.8611C3.94869 38.8009 -0.254438 44.0381 0.0126691 49.8932C0.33792 57.0395 7.4843 62.6271 15.9751 62.6271H21.6948V68.4519H16.1252C15.3292 66.4657 13.1062 65.0316 10.4933 65.0316C7.2144 65.0316 4.54663 67.2888 4.54663 70.0632C4.54663 72.8379 7.2144 75.095 10.4933 75.095C13.1062 75.095 15.3294 73.661 16.1252 71.6745H23.5991C24.651 71.6745 25.5033 70.9531 25.5033 70.0632V62.6271H42.7168V84.138H31.3002C30.474 81.7397 27.8542 79.9816 24.7566 79.9816C20.9978 79.9816 17.9401 82.569 17.9401 85.7493C17.9401 88.9296 20.9978 91.5169 24.7566 91.5169C27.8542 91.5169 30.474 89.7589 31.3002 87.3606H44.621C45.673 87.3606 46.5253 86.6392 46.5253 85.7493V62.6271H63.7128V92.6502C60.1635 93.377 57.5188 96.086 57.5188 99.3092C57.5188 103.088 61.1517 106.162 65.6171 106.162C70.0825 106.162 73.7154 103.088 73.7154 99.3092C73.7154 96.0858 71.0707 93.3768 67.5214 92.6502V62.6271H71.672C72.7239 62.6271 73.5762 61.9057 73.5762 61.0158C73.5762 60.1259 72.7239 59.4045 71.672 59.4045H15.9751C9.514 59.4045 4.06015 55.0821 3.81818 49.769C3.61607 45.3351 6.79698 41.3698 11.7341 39.9016C13.8179 39.2817 15.4025 37.9635 16.082 36.2849C18.9387 29.2269 26.7833 24.4849 35.6029 24.4849C36.9097 24.4849 41.2271 24.9021 43.3833 21.334C48.7043 12.53 59.2596 7.06101 70.9305 7.06101C77.2203 7.06101 83.2754 8.65106 88.4413 11.6593C89.3079 12.1639 90.4933 11.9785 91.0895 11.2455C91.6854 10.5124 91.4665 9.50913 90.6002 9.00469ZM10.4933 71.8724C9.31418 71.8724 8.35519 71.0607 8.35519 70.0632C8.35519 69.0657 9.31418 68.2543 10.4933 68.2543C11.6722 68.2543 12.6312 69.0657 12.6312 70.0632C12.6312 71.0607 11.6719 71.8724 10.4933 71.8724ZM24.7566 88.2943C23.0981 88.2943 21.7486 87.1526 21.7486 85.7493C21.7486 84.3459 23.0979 83.2043 24.7566 83.2043C26.4149 83.2043 27.7644 84.3459 27.7644 85.7493C27.7644 87.1526 26.4151 88.2943 24.7566 88.2943ZM69.9068 99.3095C69.9068 101.311 67.9825 102.939 65.6171 102.939C63.252 102.939 61.3274 101.311 61.3274 99.3095C61.3274 97.308 63.2517 95.6797 65.6171 95.6797C67.9825 95.6797 69.9068 97.308 69.9068 99.3095Z" fill="black"/>
<path d="M104.657 59.4045H80.5582C79.5063 59.4045 78.6539 60.1259 78.6539 61.0158C78.6539 61.9057 79.5063 62.6271 80.5582 62.6271H84.709V85.7493C84.709 86.6392 85.5614 87.3606 86.6133 87.3606H99.9339C100.76 89.7589 103.38 91.517 106.478 91.517C110.236 91.517 113.294 88.9296 113.294 85.7493C113.294 82.569 110.236 79.9817 106.478 79.9817C103.38 79.9817 100.76 81.7397 99.9339 84.138H88.5176V62.6271H104.657C105.057 62.6271 105.457 62.6183 105.855 62.602V70.0633C105.855 70.9531 106.707 71.6746 107.759 71.6746H115.233C116.029 73.661 118.252 75.0951 120.865 75.0951C124.144 75.0951 126.812 72.8379 126.812 70.0633C126.812 67.2888 124.144 65.0317 120.865 65.0317C118.252 65.0317 116.029 66.4657 115.233 68.4519H109.663V62.1983C121.251 60.2042 130.231 51.5858 129.995 41.1573C129.729 29.4096 118.143 20.0934 104.242 20.5215C103.1 20.5572 101.992 20.0216 101.435 19.159C100.344 17.4704 99.0488 15.8629 97.5837 14.3816C96.9089 13.6988 95.7076 13.6086 94.9015 14.1798C94.0948 14.7509 93.9879 15.7671 94.6631 16.4494C95.9679 17.7692 97.1219 19.2005 98.0926 20.7042C99.2961 22.5683 101.65 23.7459 104.14 23.7459C104.219 23.7459 104.299 23.7446 104.379 23.7422C116.128 23.3826 125.962 31.254 126.187 41.2192C126.415 51.2837 116.4 59.4045 104.657 59.4045ZM106.477 83.2043C108.136 83.2043 109.485 84.346 109.485 85.7493C109.485 87.1527 108.136 88.2943 106.477 88.2943C104.819 88.2943 103.469 87.1527 103.469 85.7493C103.469 84.346 104.819 83.2043 106.477 83.2043ZM120.865 68.2541C122.044 68.2541 123.003 69.0655 123.003 70.063C123.003 71.0606 122.044 71.8722 120.865 71.8722C119.686 71.8722 118.727 71.0606 118.727 70.063C118.727 69.0655 119.686 68.2541 120.865 68.2541Z" fill="black"/>
</svg>
