<svg width="130" height="120" viewBox="0 0 130 120" fill="none" xmlns="http://www.w3.org/2000/svg">
<path d="M28.8718 88.1058H26.3937C23.034 88.1058 20.2999 90.6295 20.2999 93.7308V95.6058C20.2999 96.6427 21.2079 97.4808 22.3312 97.4808H62.9439C64.0672 97.4808 64.9752 96.6427 64.9752 95.6058V93.7308C64.9752 90.6295 62.2411 88.1058 58.8814 88.1058H56.4033L55.3897 84.3633H79.1777C82.5373 84.3633 85.2714 81.8395 85.2714 78.7383V28.1433C85.2714 25.0421 82.5373 22.5183 79.1777 22.5183H6.09746C2.73778 22.5183 0.00372314 25.0421 0.00372314 28.1433V78.7383C0.00372314 81.8395 2.73778 84.3633 6.09746 84.3633H29.8854L28.8718 88.1058ZM26.3937 91.8558H58.8814C60.0027 91.8558 60.9127 92.6958 60.9127 93.7308H24.3624C24.3624 92.6958 25.2724 91.8558 26.3937 91.8558ZM52.2189 88.1058H33.0562L34.0698 84.3633H51.2054L52.2189 88.1058ZM6.09746 26.2683H79.1797C80.3009 26.2683 81.2109 27.1083 81.2109 28.1433V73.1133H4.06622V28.1433C4.06622 27.1083 4.97621 26.2683 6.09746 26.2683ZM4.06622 78.7383V76.8633H42.6782C41.5569 76.8633 40.6591 77.7014 40.6591 78.7383C40.6591 79.7752 41.5773 80.6133 42.7005 80.6133C43.8218 80.6133 44.7318 79.7752 44.7318 78.7383C44.7318 77.7014 43.8218 76.8633 42.7005 76.8633H81.2109V78.7383C81.2109 79.7733 80.3009 80.6133 79.1797 80.6133H42.6985H6.09746C4.97621 80.6133 4.06622 79.7733 4.06622 78.7383Z" fill="black"/>
<path d="M123.9 22.5183H95.4606C92.1009 22.5183 89.3669 25.0421 89.3669 28.1433V91.8558C89.3669 94.957 92.1009 97.4808 95.4606 97.4808H123.9C127.26 97.4808 129.994 94.957 129.994 91.8558V28.1433C129.994 25.0402 127.26 22.5183 123.9 22.5183ZM93.4294 33.7608H125.931V35.6321H93.4294V33.7608ZM95.4606 26.2683H123.9C125.021 26.2683 125.931 27.1083 125.931 28.1433V30.0108H93.4294V28.1433C93.4294 27.1083 94.3394 26.2683 95.4606 26.2683ZM123.9 93.7308H95.4606C94.3394 93.7308 93.4294 92.8908 93.4294 91.8558V39.3821H125.931V91.8558C125.931 92.8908 125.021 93.7308 123.9 93.7308Z" fill="black"/>
<path d="M109.681 61.8824C113.041 61.8824 115.775 59.3586 115.775 56.2573C115.775 53.1561 113.041 50.6323 109.681 50.6323C106.322 50.6323 103.588 53.1561 103.588 56.2573C103.588 59.3586 106.322 61.8824 109.681 61.8824ZM109.681 54.3823C110.803 54.3823 111.713 55.2223 111.713 56.2573C111.713 57.2924 110.803 58.1324 109.681 58.1324C108.56 58.1324 107.65 57.2924 107.65 56.2573C107.65 55.2223 108.56 54.3823 109.681 54.3823Z" fill="black"/>
<path d="M117.806 73.136H101.556C100.433 73.136 99.5251 73.9741 99.5251 75.011C99.5251 76.0479 100.433 76.886 101.556 76.886H117.806C118.93 76.886 119.838 76.0479 119.838 75.011C119.838 73.9741 118.93 73.136 117.806 73.136Z" fill="black"/>
<path d="M117.806 78.761H101.556C100.433 78.761 99.5251 79.5991 99.5251 80.636C99.5251 81.6729 100.433 82.511 101.556 82.511H117.806C118.93 82.511 119.838 81.6729 119.838 80.636C119.838 79.5991 118.93 78.761 117.806 78.761Z" fill="black"/>
<path d="M117.806 84.386H101.556C100.433 84.386 99.5251 85.2241 99.5251 86.261C99.5251 87.2979 100.433 88.136 101.556 88.136H117.806C118.93 88.136 119.838 87.2979 119.838 86.261C119.838 85.2241 118.93 84.386 117.806 84.386Z" fill="black"/>
</svg>
