<svg width="130" height="110" viewBox="0 0 130 110" fill="none" xmlns="http://www.w3.org/2000/svg">
<g clip-path="url(#clip0)">
<path d="M127.947 9.74294H81.0609L128.266 3.45275C129.386 3.30344 130.151 2.41442 129.974 1.46674C129.798 0.519067 128.748 -0.124818 127.627 0.0212753L54.5968 9.75325C51.764 9.85852 49.4956 11.8364 49.4956 14.2587V29.105H26.8005C25.6666 29.105 24.7479 29.8823 24.7479 30.8418V63.0548L3.00166 53.4595C1.99721 53.0167 0.756883 53.3458 0.232567 54.1966C-0.291494 55.0472 0.0985052 56.0962 1.10372 56.5397L24.7482 66.9725V83.9988L3.00192 74.4037C1.99747 73.9611 0.757137 74.29 0.232821 75.1408C-0.29124 75.9914 0.098759 77.0405 1.10397 77.4839L24.7484 87.9165V108.262C24.7484 109.222 25.6671 109.999 26.801 109.999H38.6957C39.8297 109.999 40.7483 109.222 40.7483 108.262C40.7483 107.303 39.8297 106.526 38.6957 106.526H28.8536V32.5788H49.4961V106.526H45.2643C44.1303 106.526 43.2117 107.303 43.2117 108.262C43.2117 109.222 44.1303 109.999 45.2643 109.999H51.5489H61.8336H117.662H127.947C129.081 109.999 129.999 109.222 129.999 108.262V30.8421V11.4797C129.999 10.5205 129.08 9.74294 127.947 9.74294ZM115.609 106.526H63.8857V89.0556H77.7259V92.5047C77.7259 93.4642 78.6445 94.2415 79.7784 94.2415H100.305C101.439 94.2415 102.357 93.4642 102.357 92.5047V89.0554H115.609V106.526ZM81.8313 90.7677V89.0554H98.2521V90.7677H81.8313ZM115.609 85.5818H100.305H79.7787H63.886V68.1116H77.7261V71.5605C77.7261 72.5199 78.6447 73.2972 79.7787 73.2972H100.305C101.439 73.2972 102.358 72.5199 102.358 71.5605V68.1116H115.609V85.5818ZM81.8313 69.8237V68.1116H98.2521V69.8237H81.8313ZM115.609 64.6376H100.305H79.7787H63.886V48.2093C63.886 47.6349 64.4385 47.1671 65.1177 47.1671H77.7261V50.6162C77.7261 51.5757 78.6447 52.353 79.7787 52.353H100.305C101.439 52.353 102.358 51.5757 102.358 50.6162V47.1671H114.378C115.057 47.1671 115.609 47.6346 115.609 48.2093V64.6376ZM81.8313 48.8794V47.1671H98.2521V48.8794H81.8313ZM125.894 29.1053H117.698C116.565 29.1053 115.646 29.8826 115.646 30.8421C115.646 31.8015 116.565 32.5788 117.698 32.5788H125.894V106.526H119.714V87.3188V66.375V48.2098C119.714 45.72 117.32 43.694 114.377 43.694H100.305H79.7784H65.1174C62.1749 43.694 59.7806 45.7197 59.7806 48.2098V66.375V87.3188V106.526H53.601V32.5788H111.13C112.264 32.5788 113.183 31.8015 113.183 30.8421C113.183 29.8826 112.264 29.1053 111.13 29.1053H53.601V14.2587C53.601 13.6847 54.1525 13.2178 54.8307 13.217C54.8314 13.217 54.8322 13.2167 54.8332 13.2167H125.894V29.1053Z" fill="black"/>
<path d="M101.219 36.3994H74.1482C73.0142 36.3994 72.0956 37.1767 72.0956 38.1362C72.0956 39.0957 73.0142 39.873 74.1482 39.873H101.219C102.353 39.873 103.272 39.0957 103.272 38.1362C103.272 37.1767 102.353 36.3994 101.219 36.3994Z" fill="black"/>
<path d="M62.4113 26.8797H87.8321C90.7746 26.8797 93.1689 24.854 93.1689 22.3639V20.0481C93.1689 17.5583 90.7749 15.5323 87.8321 15.5323H62.4113C59.4688 15.5323 57.0745 17.5581 57.0745 20.0481V22.3639C57.0745 24.854 59.4688 26.8797 62.4113 26.8797ZM61.1796 20.0481C61.1796 19.4737 61.7321 19.0059 62.4113 19.0059H87.8321C88.511 19.0059 89.0638 19.4734 89.0638 20.0481V22.3639C89.0638 22.9384 88.5113 23.4059 87.8321 23.4059H62.4113C61.7324 23.4059 61.1796 22.9384 61.1796 22.3639V20.0481Z" fill="black"/>
<path d="M117.182 26.4279C120.527 26.4279 123.248 24.1248 123.248 21.2946C123.248 18.4641 120.527 16.1614 117.182 16.1614C113.836 16.1614 111.115 18.4639 111.115 21.2946C111.115 24.1252 113.837 26.4279 117.182 26.4279ZM117.182 19.635C118.263 19.635 119.143 20.3794 119.143 21.2944C119.143 22.2096 118.263 22.9541 117.182 22.9541C116.1 22.9541 115.221 22.2096 115.221 21.2944C115.221 20.3796 116.101 19.635 117.182 19.635Z" fill="black"/>
<path d="M105.272 20.3927C106.406 20.3927 107.324 19.6128 107.324 18.6533C107.324 17.6938 106.406 16.9167 105.272 16.9167C104.138 16.9167 103.219 17.6941 103.219 18.6535V18.6585C103.219 19.618 104.138 20.3927 105.272 20.3927Z" fill="black"/>
<path d="M98.9018 20.3927C100.036 20.3927 100.954 19.6128 100.954 18.6533C100.954 17.6938 100.035 16.9167 98.9018 16.9167C97.7679 16.9167 96.8492 17.6941 96.8492 18.6535V18.6585C96.8492 19.618 97.7679 20.3927 98.9018 20.3927Z" fill="black"/>
<path d="M105.272 25.7191C106.406 25.7191 107.324 24.9392 107.324 23.9797C107.324 23.0203 106.406 22.2432 105.272 22.2432C104.138 22.2432 103.219 23.0205 103.219 23.98V23.9849C103.219 24.9442 104.138 25.7191 105.272 25.7191Z" fill="black"/>
<path d="M98.9018 25.7191C100.036 25.7191 100.954 24.9392 100.954 23.9797C100.954 23.0203 100.035 22.2432 98.9018 22.2432C97.7679 22.2432 96.8492 23.0205 96.8492 23.98V23.9849C96.8492 24.9442 97.7679 25.7191 98.9018 25.7191Z" fill="black"/>
</g>
<defs>
<clipPath id="clip0">
<rect width="130" height="110" rx="15" fill="white"/>
</clipPath>
</defs>
</svg>
