<svg width="130" height="110" viewBox="0 0 130 110" fill="none" xmlns="http://www.w3.org/2000/svg">
<path d="M118.113 23.291C119.456 21.8962 120.264 20.1175 120.264 18.1822C120.264 13.7156 115.969 10.0818 110.69 10.0818C108.57 10.0818 106.609 10.6689 105.021 11.6602C93.6361 4.13209 79.4902 0 65 0C53.2815 0 41.7973 2.66772 31.7891 7.71461C30.8857 8.17008 30.5899 9.15922 31.1281 9.92363C31.6664 10.688 32.8352 10.9386 33.7388 10.4831C38.1151 8.27621 42.7918 6.55359 47.6516 5.34059C44.1439 7.62609 40.8741 10.6126 37.9537 14.2487C35.4588 17.3549 33.28 20.8572 31.4511 24.6578C28.0627 22.7775 24.8851 20.6087 21.9751 18.1756C23.6285 16.7967 25.3845 15.487 27.2393 14.2547C28.0665 13.7051 28.2105 12.6923 27.561 11.9924C26.9115 11.2924 25.7144 11.1708 24.8874 11.7202C17.308 16.7561 11.0409 23.2663 6.76305 30.5469C2.27525 38.184 0 46.4112 0 55C0 66.4692 4.10617 77.402 11.8881 86.7101C10.5442 88.1051 9.73629 89.8838 9.73629 91.8199C9.73629 96.2865 14.0309 99.9204 19.3096 99.9204C21.4312 99.9204 23.3931 99.3324 24.9821 98.3402C36.3637 105.868 50.5086 110 65 110C82.3619 110 98.6847 104.279 110.962 93.8908C123.239 83.5025 130 69.6908 130 55C130 43.5312 125.894 32.5987 118.113 23.291ZM120.92 56.6113H126.159C125.719 68.8624 120.272 80.3825 110.643 89.4841C109.096 88.1929 107.474 86.967 105.794 85.8208C106.201 84.9221 106.426 83.9478 106.426 82.9293C106.426 80.1047 104.708 77.6145 102.11 76.1643C103.994 69.9536 105.015 63.3896 105.155 56.6113H112.47C113.522 56.6113 114.374 55.8899 114.374 55C114.374 54.1101 113.522 53.3887 112.47 53.3887H105.154C104.965 44.2557 103.164 35.498 99.9413 27.7456C101.684 26.8037 103.377 25.7883 105.017 24.7025C106.606 25.6949 108.568 26.2827 110.69 26.2827C112.304 26.2827 113.825 25.9415 115.16 25.3423C122.018 33.6237 125.797 43.2588 126.159 53.3887H120.92C119.869 53.3887 119.016 54.1101 119.016 55C119.016 55.8899 119.869 56.6113 120.92 56.6113ZM24.9816 85.2994C23.3929 84.3073 21.431 83.7195 19.3096 83.7195C17.696 83.7195 16.1756 84.0604 14.8406 84.6594C7.98154 76.3776 4.20291 66.7419 3.84033 56.6113H17.3494C18.1383 59.9053 21.2961 62.4798 25.2474 63.0027C25.9695 69.8223 27.6171 76.3465 30.0701 82.2577C28.3217 83.1997 26.6226 84.2138 24.9816 85.2994ZM55.5064 35.7775C56.0247 39.2275 59.1147 42.0073 63.0957 42.6899V53.3887H36.1144C35.3823 50.3321 32.6099 47.8955 29.0568 47.1425C29.7329 40.8725 31.2173 34.8782 33.409 29.4271C40.2358 32.6429 47.7257 34.8113 55.5064 35.7775ZM96.8533 74.8288C93.9293 74.8288 91.3088 75.9449 89.5515 77.6989C82.3446 75.2056 74.7419 73.851 66.9043 73.6624V56.6113H101.346C101.21 62.9709 100.268 69.1271 98.5413 74.9577C97.9928 74.8745 97.4294 74.8288 96.8533 74.8288ZM66.9043 53.3887V42.6899C70.8855 42.0071 73.9753 39.2272 74.4936 35.7773C82.2897 34.8118 89.7691 32.658 96.6063 29.4321C99.528 36.6867 101.162 44.8581 101.345 53.3885H66.9043V53.3887ZM74.2127 32.5548C73.2471 29.659 70.4242 27.4156 66.9043 26.8121V3.29506C75.7283 3.94947 84.0216 9.14139 90.432 18.0843C92.2629 20.6388 93.8783 23.4156 95.2694 26.3695C88.7738 29.5047 81.6486 31.605 74.2127 32.5548ZM65 29.8732C68.1786 29.8732 70.7647 32.0613 70.7647 34.751C70.7647 37.4406 68.1786 39.6288 65 39.6288C61.8213 39.6288 59.2353 37.4406 59.2353 34.751C59.2353 32.0613 61.8213 29.8732 65 29.8732ZM26.732 50.1222C29.9107 50.1222 32.4967 52.3104 32.4967 55C32.4967 57.6896 29.9107 59.8778 26.732 59.8778C23.5544 59.8778 20.9694 57.6911 20.9676 55.0028C20.9676 55.0019 20.9678 55.0011 20.9678 55C20.9678 54.9989 20.9676 54.9981 20.9676 54.9972C20.9691 52.3089 23.5544 50.1222 26.732 50.1222ZM29.057 62.8575C32.6102 62.1045 35.3823 59.6679 36.1146 56.6113H63.0957V73.6646C52.6599 73.9249 42.4625 76.3202 33.41 80.5752C31.218 75.1236 29.7332 69.1283 29.057 62.8575ZM63.0957 76.8885V106.703C55.0162 106.092 47.2697 101.617 41.1039 93.94C38.6494 90.8838 36.5173 87.4141 34.7422 83.6352C43.3598 79.4915 53.1106 77.1532 63.0957 76.8885ZM66.9043 76.8872C74.097 77.0711 81.0768 78.2983 87.704 80.5443C87.4288 81.2986 87.28 82.0993 87.28 82.929C87.28 85.843 89.1084 88.4013 91.8445 89.8288C85.3536 99.949 76.4159 105.99 66.9043 106.704V76.8872ZM91.0886 82.9293C91.0886 80.2396 93.6747 78.0514 96.8533 78.0514C100.032 78.0514 102.618 80.2396 102.618 82.9293C102.618 85.6189 100.032 87.8071 96.8533 87.8071C93.6747 87.8071 91.0886 85.6189 91.0886 82.9293ZM116.455 18.1822C116.455 20.8719 113.869 23.06 110.69 23.06C107.512 23.06 104.926 20.8719 104.926 18.1822C104.926 15.4926 107.512 13.3044 110.69 13.3044C113.869 13.3044 116.455 15.4926 116.455 18.1822ZM102.457 14.0566C101.607 15.2657 101.117 16.6762 101.117 18.1822C101.117 19.6876 101.607 21.0977 102.455 22.3066C101.19 23.1365 99.8921 23.9233 98.5618 24.6632C97.1483 21.7325 95.5205 18.9694 93.6881 16.4132C90.3848 11.8048 86.5881 8.09875 82.4533 5.38205C89.6619 7.19791 96.4608 10.129 102.457 14.0566ZM41.1039 16.06C47.2697 8.3832 55.0162 3.90758 63.0957 3.29742V26.8121C59.5763 27.4156 56.7536 29.6583 55.7878 32.5538C48.3651 31.6029 41.2288 29.4873 34.7435 26.3622C36.5183 22.5844 38.6499 19.1153 41.1039 16.06ZM19.3484 20.5092C22.6276 23.245 26.2257 25.6661 30.0711 27.7404C27.6174 33.6521 25.9698 40.1769 25.2474 46.9973C21.2961 47.52 18.138 50.0947 17.3494 53.3887H3.83906C4.28213 41.0773 9.79012 29.5311 19.3484 20.5092ZM19.3096 96.6977C16.1309 96.6977 13.5449 94.5096 13.5449 91.8199C13.5449 89.1303 16.1309 86.9421 19.3096 86.9421C22.4882 86.9421 25.0743 89.1303 25.0743 91.8199C25.0743 94.5096 22.4882 96.6977 19.3096 96.6977ZM27.5453 95.943C28.3938 94.7343 28.8829 93.3247 28.8829 91.8199C28.8829 90.3149 28.3936 88.9051 27.545 87.6964C28.812 86.8658 30.1133 86.0774 31.4486 85.337C33.2782 89.1397 35.4578 92.6438 37.9539 95.7516C40.8642 99.3751 44.1218 102.354 47.6158 104.636C40.381 102.821 33.5588 99.8834 27.5453 95.943ZM95.4634 90.9434C95.9174 90.9996 96.3813 91.0297 96.8533 91.0297C99.5508 91.0297 101.989 90.0795 103.731 88.5554C105.213 89.5813 106.647 90.6727 108.018 91.8191C100.719 97.9266 91.923 102.294 82.3332 104.678C87.3072 101.442 91.7836 96.7989 95.4634 90.9434Z" fill="black"/>
</svg>
