<svg width="130" height="120" viewBox="0 0 130 120" fill="none" xmlns="http://www.w3.org/2000/svg">
<path d="M124.899 86.3116H121.734C122.376 85.2837 122.746 84.0928 122.746 82.8234V21.07C122.746 17.2071 119.341 14.0647 115.156 14.0647H97.2624C96.21 14.0647 95.3573 14.8521 95.3573 15.8232C95.3573 16.7944 96.21 17.5818 97.2624 17.5818H115.156C117.24 17.5818 118.936 19.1466 118.936 21.07V82.8234C118.936 84.747 117.24 86.3116 115.156 86.3116H14.8436C12.7597 86.3116 11.0644 84.7467 11.0644 82.8234V21.07C11.0644 19.1464 12.7597 17.5818 14.8436 17.5818H88.3695C89.4218 17.5818 90.2745 16.7944 90.2745 15.8232C90.2745 14.8521 89.4218 14.0647 88.3695 14.0647H14.8436C10.6588 14.0647 7.25428 17.2073 7.25428 21.07V82.8234C7.25428 84.093 7.62387 85.2837 8.26626 86.3116H5.10104C2.28838 86.3116 0 88.4239 0 91.0202C0 99.2443 7.24844 105.935 16.1579 105.935H24.4472C25.4996 105.935 26.3523 105.148 26.3523 104.177C26.3523 103.205 25.4996 102.418 24.4472 102.418H16.1579C9.34936 102.418 3.81016 97.3052 3.81016 91.0202C3.81016 90.3633 4.38905 89.8287 5.10104 89.8287H51.4135V91.5408C51.4135 94.432 53.9615 96.784 57.0937 96.784H72.9061C76.0383 96.784 78.5862 94.4318 78.5862 91.5408V89.8287H124.899C125.611 89.8287 126.19 90.3633 126.19 91.0202C126.19 97.305 120.65 102.418 113.842 102.418H33.2489C32.1966 102.418 31.3439 103.205 31.3439 104.177C31.3439 105.148 32.1966 105.935 33.2489 105.935H113.842C122.751 105.935 130 99.2443 130 91.0202C130 88.4239 127.712 86.3116 124.899 86.3116ZM74.7763 91.5408C74.7763 92.4927 73.9373 93.267 72.9063 93.267H57.0939C56.0626 93.267 55.2239 92.4925 55.2239 91.5408V89.8287H74.7766V91.5408H74.7763Z" fill="black"/>
<path d="M28.0809 30.7462C29.1331 30.7462 29.986 29.9589 29.986 28.9877C29.986 28.0164 29.1331 27.2291 28.0809 27.2291C27.0288 27.2291 26.1758 28.0164 26.1758 28.9877C26.1758 29.9589 27.0288 30.7462 28.0809 30.7462Z" fill="black"/>
<path d="M35.6308 30.7462C36.6829 30.7462 37.5359 29.9589 37.5359 28.9877C37.5359 28.0164 36.6829 27.2291 35.6308 27.2291C34.5786 27.2291 33.7257 28.0164 33.7257 28.9877C33.7257 29.9589 34.5786 30.7462 35.6308 30.7462Z" fill="black"/>
<path d="M43.1807 30.7462C44.2329 30.7462 45.0858 29.9589 45.0858 28.9877C45.0858 28.0164 44.2329 27.2291 43.1807 27.2291C42.1286 27.2291 41.2756 28.0164 41.2756 28.9877C41.2756 29.9589 42.1286 30.7462 43.1807 30.7462Z" fill="black"/>
<path d="M15.4324 24.1904L15.4329 79.7026C15.4329 81.7584 17.2448 83.4309 19.4717 83.4309H110.528C112.755 83.4309 114.567 81.7584 114.567 79.7026L114.568 24.1904C114.568 22.1348 112.756 20.4623 110.529 20.4623H19.4712C17.2443 20.4623 15.4324 22.1348 15.4324 24.1904ZM110.757 79.7026C110.757 79.8191 110.654 79.9139 110.528 79.9139H19.4717C19.3457 79.9139 19.2431 79.8191 19.2431 79.7026V37.513H45.1567C41.757 41.4868 39.7255 46.5017 39.7255 51.9466C39.7255 64.8109 51.0635 75.2767 64.9998 75.2767C78.936 75.2767 90.2743 64.8109 90.2743 51.9466C90.2743 46.5017 88.2427 41.4868 84.843 37.513H110.757V79.7026ZM65 32.1336C76.8356 32.1336 86.4644 41.0217 86.4644 51.9466C86.4644 62.8716 76.8356 71.7597 65 71.7597C53.1647 71.7597 43.5359 62.8716 43.5359 51.9466C43.5359 41.0217 53.1647 32.1336 65 32.1336ZM110.528 23.9796C110.654 23.9796 110.757 24.0743 110.757 24.1908V33.9962H81.1256C76.7465 30.6383 71.1242 28.6167 64.9998 28.6167C58.8753 28.6167 53.2531 30.6386 48.8742 33.9962H19.2431V24.1908C19.2431 24.0743 19.3457 23.9796 19.4717 23.9796H110.528Z" fill="black"/>
<path d="M56.3819 43.8977C58.5844 41.9124 61.4931 40.8188 64.5722 40.8188C70.6261 40.8188 75.6224 45.0764 76.2331 50.5177L75.5932 49.7407C74.9567 48.9676 73.7618 48.8169 72.9236 49.4047C72.0858 49.9923 71.923 51.0955 72.5593 51.8688L76.3962 56.5291C76.7566 56.9666 77.3177 57.2236 77.9131 57.2236C78.5085 57.2236 79.0696 56.9666 79.4301 56.5291L83.2666 51.8688C83.9032 51.0955 83.7401 49.9923 82.9024 49.4047C82.0644 48.8166 80.8693 48.9676 80.2327 49.7407L80.0039 50.0188C79.1278 42.8735 72.5428 37.3018 64.5717 37.3018C60.4918 37.3018 56.638 38.7506 53.7191 41.3813C52.9665 42.0599 52.952 43.1732 53.6871 43.8679C54.4225 44.5626 55.6283 44.5765 56.3819 43.8977Z" fill="black"/>
<path d="M65.4278 66.5914C69.5077 66.5914 73.3615 65.1426 76.2804 62.5118C77.033 61.8333 77.0475 60.72 76.3124 60.0253C75.5773 59.3308 74.3712 59.3169 73.6184 59.9957C71.4158 61.981 68.5072 63.0746 65.428 63.0746C59.3742 63.0746 54.3778 58.8171 53.7672 53.3757L54.407 54.1527C55.0436 54.9258 56.2384 55.0765 57.0767 54.4887C57.9144 53.9011 58.0772 52.7979 57.4409 52.0247L53.6041 47.3643C53.2437 46.9268 52.6826 46.6698 52.0872 46.6698C51.4918 46.6698 50.9306 46.9268 50.5702 47.3643L46.7329 52.0244C46.0963 52.7977 46.2594 53.9009 47.0971 54.4885C47.4416 54.7302 47.8467 54.847 48.2483 54.847C48.8234 54.847 49.3918 54.6076 49.7668 54.1525L49.9956 53.8744C50.8717 61.0199 57.4567 66.5914 65.4278 66.5914Z" fill="black"/>
</svg>
