<svg width="130" height="110" viewBox="0 0 130 110" fill="none" xmlns="http://www.w3.org/2000/svg">
<path d="M60.7142 0.255005H7.068C3.17079 0.25522 0 2.93798 0 6.23562V25.8582C0 26.7481 0.852619 27.4695 1.9043 27.4695C2.95598 27.4695 3.8086 26.7481 3.8086 25.8582V6.23562C3.8086 4.71496 5.27085 3.47767 7.068 3.47767H60.7142C62.5113 3.47767 63.9736 4.71496 63.9736 6.23562V35.7501H3.8086V32.4363C3.8086 31.5464 2.95598 30.825 1.9043 30.825C0.852619 30.825 0 31.5464 0 32.4363V42.3879C0 44.3423 1.87916 45.9326 4.18921 45.9326H23.2147C22.4781 47.5998 21.2205 49.4212 19.0651 50.8055C18.0383 51.4648 17.6247 52.6026 18.0358 53.6367C18.4473 54.6716 19.5907 55.3668 20.881 55.3668H26.1587C27.2104 55.3668 28.063 54.6454 28.063 53.7555C28.063 52.8656 27.2104 52.1442 26.1587 52.1442H23.021C25.2975 50.1925 26.5454 47.8939 27.2292 45.9326H40.553C41.2367 47.8941 42.4847 50.1925 44.7612 52.1442H33.9326C32.8809 52.1442 32.0283 52.8656 32.0283 53.7555C32.0283 54.6454 32.8809 55.3668 33.9326 55.3668H46.9014C48.1917 55.3668 49.3351 54.6714 49.7467 53.6365C50.1578 52.6024 49.7441 51.4646 48.7171 50.8055C46.5617 49.4215 45.3041 47.6 44.5675 45.9326H63.593C65.9028 45.9326 67.7822 44.3425 67.7822 42.3879V6.23562C67.7822 2.93798 64.6114 0.255005 60.7142 0.255005ZM63.9736 42.3877C63.9736 42.5651 63.803 42.7097 63.593 42.7097H42.0165C42.0145 42.7097 42.0127 42.7097 42.0106 42.7097H4.18921C3.97923 42.7097 3.8086 42.5653 3.8086 42.3877V38.9725H63.9736V42.3877Z" fill="black"/>
<path d="M24.4624 18.7781C23.4107 18.7781 22.5581 19.4995 22.5581 20.3894V20.7366C22.5581 21.6265 23.4107 22.3479 24.4624 22.3479C25.5141 22.3479 26.3667 21.6265 26.3667 20.7366V20.3894C26.3667 19.4995 25.5141 18.7781 24.4624 18.7781Z" fill="black"/>
<path d="M33.8912 18.7781C32.8396 18.7781 31.9869 19.4995 31.9869 20.3894V20.7366C31.9869 21.6265 32.8396 22.3479 33.8912 22.3479C34.9429 22.3479 35.7955 21.6265 35.7955 20.7366V20.3894C35.7955 19.4995 34.9429 18.7781 33.8912 18.7781Z" fill="black"/>
<path d="M43.3198 18.7781C42.2681 18.7781 41.4155 19.4995 41.4155 20.3894V20.7366C41.4155 21.6265 42.2681 22.3479 43.3198 22.3479C44.3715 22.3479 45.2241 21.6265 45.2241 20.7366V20.3894C45.2241 19.4995 44.3715 18.7781 43.3198 18.7781Z" fill="black"/>
<path d="M122.932 54.6332H114.844C113.792 54.6332 112.94 55.3546 112.94 56.2445C112.94 57.1344 113.792 57.8558 114.844 57.8558H122.932C124.729 57.8558 126.192 59.0931 126.192 60.6138V90.1282H66.0266V60.6136C66.0266 59.0929 67.4889 57.8556 69.2861 57.8556H107.07C108.122 57.8556 108.975 57.1341 108.975 56.2443C108.975 55.3544 108.122 54.6329 107.07 54.6329H69.2861C65.3886 54.6329 62.218 57.3159 62.218 60.6136V96.7658C62.218 98.7202 64.0972 100.311 66.407 100.311H85.4317C84.7071 101.944 83.453 103.79 81.2829 105.183C80.2561 105.843 79.8425 106.981 80.2536 108.015C80.6651 109.05 81.8085 109.745 83.0988 109.745H109.119C110.409 109.745 111.553 109.05 111.964 108.015C112.376 106.981 111.962 105.843 110.935 105.183C108.779 103.799 107.522 101.978 106.785 100.311H125.811C128.121 100.311 130 98.7205 130 96.7658V60.6136C130 57.3159 126.83 54.6332 122.932 54.6332ZM106.979 106.523H85.2367C87.5419 104.543 88.78 102.212 89.4457 100.311H102.771C103.455 102.272 104.703 104.57 106.979 106.523ZM126.192 96.766C126.192 96.9435 126.021 97.0881 125.811 97.0881H66.407C66.1973 97.0881 66.0266 96.9437 66.0266 96.766V93.3509H126.192V96.766Z" fill="black"/>
<path d="M86.6805 73.1561C85.6285 73.1561 84.7762 73.8776 84.7762 74.7675V75.1146C84.7762 76.0045 85.6285 76.726 86.6805 76.726C87.7324 76.726 88.5848 76.0045 88.5848 75.1146V74.7675C88.5848 73.8774 87.7324 73.1561 86.6805 73.1561Z" fill="black"/>
<path d="M96.109 73.1561C95.0571 73.1561 94.2047 73.8776 94.2047 74.7675V75.1146C94.2047 76.0045 95.0571 76.726 96.109 76.726C97.161 76.726 98.0133 76.0045 98.0133 75.1146V74.7675C98.0133 73.8774 97.161 73.1561 96.109 73.1561Z" fill="black"/>
<path d="M105.538 73.1561C104.486 73.1561 103.634 73.8776 103.634 74.7675V75.1146C103.634 76.0045 104.486 76.726 105.538 76.726C106.59 76.726 107.442 76.0045 107.442 75.1146V74.7675C107.442 73.8774 106.59 73.1561 105.538 73.1561Z" fill="black"/>
<path d="M77.7304 22.2581H74.6231C73.5712 22.2581 72.7188 22.9795 72.7188 23.8694C72.7188 24.7593 73.5715 25.4807 74.6231 25.4807H77.7304C78.7824 25.4807 79.6347 24.7593 79.6347 23.8694C79.6347 22.9795 78.7824 22.2581 77.7304 22.2581Z" fill="black"/>
<path d="M86.9199 22.2581H83.8126C82.7606 22.2581 81.9083 22.9795 81.9083 23.8694C81.9083 24.7593 82.7606 25.4807 83.8126 25.4807H86.9199C87.9718 25.4807 88.8242 24.7593 88.8242 23.8694C88.8242 22.9795 87.9718 22.2581 86.9199 22.2581Z" fill="black"/>
<path d="M96.109 22.2581H93.0017C91.9498 22.2581 91.0974 22.9795 91.0974 23.8694C91.0974 24.7593 91.95 25.4807 93.0017 25.4807H96.109C97.161 25.4807 98.0134 24.7593 98.0134 23.8694C98.0134 22.9795 97.161 22.2581 96.109 22.2581Z" fill="black"/>
<path d="M96.109 27.2512C95.0571 27.2512 94.2047 27.9727 94.2047 28.8626V31.4918C94.2047 32.3817 95.0571 33.1032 96.109 33.1032C97.161 33.1032 98.0133 32.3817 98.0133 31.4918V28.8626C98.0133 27.9727 97.161 27.2512 96.109 27.2512Z" fill="black"/>
<path d="M96.109 35.3754C95.0571 35.3754 94.2047 36.0968 94.2047 36.9867V39.616C94.2047 40.5058 95.0571 41.2273 96.109 41.2273C97.161 41.2273 98.0133 40.5058 98.0133 39.616V36.9867C98.0133 36.0968 97.161 35.3754 96.109 35.3754Z" fill="black"/>
<path d="M96.109 43.4993C95.0571 43.4993 94.2047 44.2207 94.2047 45.1106V47.7399C94.2047 48.6297 95.0571 49.3512 96.109 49.3512C97.161 49.3512 98.0133 48.6297 98.0133 47.7399V45.1106C98.0133 44.2209 97.161 43.4993 96.109 43.4993Z" fill="black"/>
<path d="M55.9905 85.0917H52.8832C51.8315 85.0917 50.9789 85.8131 50.9789 86.703C50.9789 87.5929 51.8315 88.3143 52.8832 88.3143H55.9905C57.0421 88.3143 57.8948 87.5929 57.8948 86.703C57.8948 85.8129 57.0421 85.0917 55.9905 85.0917Z" fill="black"/>
<path d="M46.8011 85.0917H43.6938C42.6421 85.0917 41.7895 85.8131 41.7895 86.703C41.7895 87.5929 42.6421 88.3143 43.6938 88.3143H46.8011C47.8528 88.3143 48.7054 87.5929 48.7054 86.703C48.7054 85.8129 47.8528 85.0917 46.8011 85.0917Z" fill="black"/>
<path d="M37.612 85.0917H34.5047C33.453 85.0917 32.6004 85.8131 32.6004 86.703C32.6004 87.5929 33.453 88.3143 34.5047 88.3143H37.612C38.6637 88.3143 39.5163 87.5929 39.5163 86.703C39.5163 85.8129 38.6637 85.0917 37.612 85.0917Z" fill="black"/>
<path d="M34.5047 77.4691C33.453 77.4691 32.6004 78.1906 32.6004 79.0804V81.7097C32.6004 82.5996 33.453 83.321 34.5047 83.321C35.5563 83.321 36.409 82.5996 36.409 81.7097V79.0804C36.409 78.1903 35.5563 77.4691 34.5047 77.4691Z" fill="black"/>
<path d="M34.5047 69.3447C33.453 69.3447 32.6004 70.0662 32.6004 70.9561V73.5853C32.6004 74.4752 33.453 75.1967 34.5047 75.1967C35.5563 75.1967 36.409 74.4752 36.409 73.5853V70.9561C36.409 70.066 35.5563 69.3447 34.5047 69.3447Z" fill="black"/>
<path d="M34.5047 61.2205C33.453 61.2205 32.6004 61.9419 32.6004 62.8318V65.4611C32.6004 66.3509 33.453 67.0724 34.5047 67.0724C35.5563 67.0724 36.409 66.3509 36.409 65.4611V62.8318C36.409 61.9419 35.5563 61.2205 34.5047 61.2205Z" fill="black"/>
</svg>
