<svg width="130" height="110" viewBox="0 0 130 110" fill="none" xmlns="http://www.w3.org/2000/svg">
<path d="M38.6523 19.8988C39.706 19.8988 40.5604 19.1759 40.5604 18.2843V8.07232C40.5604 5.4016 43.1282 3.22889 46.2845 3.22889H100.555C103.711 3.22889 106.279 5.4016 106.279 8.07232V51.7703C106.279 52.6619 107.133 53.3848 108.187 53.3848C109.241 53.3848 110.095 52.6619 110.095 51.7703V8.07232C110.095 3.62119 105.815 0 100.555 0H46.2845C41.024 0 36.7444 3.62119 36.7444 8.07232V18.2843C36.7442 19.1759 37.5986 19.8988 38.6523 19.8988Z" fill="black"/>
<path d="M21.8134 85.6642C22.8671 85.6642 23.7215 84.9415 23.7215 84.0496V77.5107L31.7345 74.8713C32.4675 74.6298 32.9505 74.0323 32.9505 73.3667V61.8567C32.9505 60.9651 32.0963 60.2422 31.0424 60.2422H25.6293C24.5771 60.2422 23.7212 59.5179 23.7212 58.6276V45.714L39.5637 38.4231C40.1779 38.1405 40.56 37.5963 40.56 37.0049V24.7422C40.56 23.8506 39.7056 23.1277 38.6519 23.1277C37.5982 23.1277 36.7438 23.8506 36.7438 24.7422V36.0452L20.9016 43.3361C20.2874 43.6186 19.9053 44.1628 19.9053 44.7543V58.6276C19.9053 61.2983 22.473 63.471 25.6293 63.471H29.1343V72.2627L21.1212 74.902C20.3882 75.1435 19.9053 75.741 19.9053 76.4066V84.0496C19.9053 84.9415 20.7597 85.6642 21.8134 85.6642Z" fill="black"/>
<path d="M110.095 58.2282C110.095 57.3366 109.241 56.6136 108.187 56.6136C107.133 56.6136 106.279 57.3364 106.279 58.2282V96.6171C92.7979 93.1743 78.9247 91.4286 65 91.4286C51.0753 91.4286 37.2019 93.1743 23.7215 96.6171V90.5076C23.7215 89.616 22.8673 88.8931 21.8134 88.8931C20.7597 88.8931 19.9053 89.616 19.9053 90.5076V101.928C19.9053 106.379 24.1849 110 29.4453 110H100.554C105.815 110 110.095 106.379 110.095 101.928V58.2282H110.095ZM100.554 106.771H29.4455C26.2892 106.771 23.7215 104.598 23.7215 101.928V99.9983C37.1902 96.4577 51.0695 94.6577 65 94.6577C78.9308 94.6577 92.8099 96.4577 106.279 99.9983V101.928C106.279 104.598 103.711 106.771 100.554 106.771Z" fill="black"/>
<path d="M53.6512 11.2383C50.4949 11.2383 47.9271 13.411 47.9271 16.0817V26.9451C47.9271 29.6158 50.4949 31.7885 53.6512 31.7885H93.1874C96.3435 31.7885 98.9115 29.6158 98.9115 26.9451V16.0817C98.9115 13.411 96.3435 11.2383 93.1874 11.2383H53.6512ZM57.3608 28.5596H53.6512C52.599 28.5596 51.7431 27.8354 51.7431 26.9451V16.0817C51.7431 15.1914 52.599 14.4672 53.6512 14.4672H57.3608V28.5596ZM66.7944 28.5596H61.1767V14.4672H66.7944V28.5596ZM76.2283 28.5596H70.6106V14.4672H76.2283V28.5596ZM85.6622 28.5596H80.0445V14.4672H85.6622V28.5596ZM95.0955 16.0817V26.9451C95.0955 27.8352 94.2396 28.5596 93.1874 28.5596H89.4779V14.4672H93.1874C94.2399 14.4672 95.0955 15.1914 95.0955 16.0817Z" fill="black"/>
<g clip-path="url(#clip0)">
<path d="M89.3472 70.7782L74.6207 44.0594C73.6917 42.3746 71.9214 41.3281 70 41.3281C68.0786 41.3281 66.3083 42.3746 65.3796 44.0594L50.6531 70.7782C50.2258 71.553 50 72.4319 50 73.3203C50 76.228 52.3657 78.5938 55.2734 78.5938H84.7266C87.6343 78.5938 90 76.228 90 73.3203C90 72.4319 89.7742 71.553 89.3472 70.7782ZM84.7266 77.4219H55.2734C53.0118 77.4219 51.1719 75.582 51.1719 73.3203C51.1719 72.6294 51.3474 71.9458 51.6794 71.3437L66.4059 44.6249C67.1283 43.3142 68.5056 42.5 70 42.5C71.4944 42.5 72.8717 43.3142 73.5944 44.6249L88.3209 71.3437C88.6526 71.9458 88.8281 72.6294 88.8281 73.3203C88.8281 75.582 86.9882 77.4219 84.7266 77.4219Z" fill="black"/>
<path d="M72.5681 45.1907C72.0514 44.2538 71.0675 43.6719 70 43.6719C68.9325 43.6719 67.9486 44.2538 67.4323 45.1907L60.6345 57.5238C60.4782 57.8073 60.5814 58.1635 60.8649 58.3197C61.1481 58.476 61.5045 58.3728 61.6608 58.0896L68.4583 45.7565C68.7686 45.1935 69.3594 44.8438 70 44.8438C70.6406 44.8438 71.2314 45.1935 71.5417 45.7565L86.268 72.4753C86.4117 72.7353 86.4844 73.0197 86.4844 73.3203C86.4844 74.2896 85.6958 75.0781 84.7266 75.0781H55.2734C54.3042 75.0781 53.5156 74.2896 53.5156 73.3203C53.5156 73.0197 53.5883 72.7356 53.7317 72.4753L60.5295 60.1422C60.6857 59.8587 60.5826 59.5026 60.2991 59.3463C60.0156 59.1901 59.6594 59.2932 59.5032 59.5764L52.7054 71.9098C52.4655 72.345 52.3438 72.8198 52.3438 73.3203C52.3438 74.9359 53.6578 76.25 55.2734 76.25H84.7266C86.3422 76.25 87.6562 74.9359 87.6562 73.3203C87.6562 72.8195 87.5345 72.345 87.2943 71.9095L72.5681 45.1907Z" fill="black"/>
<path d="M70 71.5625C70.9692 71.5625 71.7578 70.7739 71.7578 69.8047C71.7578 68.8354 70.9692 68.0469 70 68.0469C69.0308 68.0469 68.2422 68.8354 68.2422 69.8047C68.2422 70.7739 69.0308 71.5625 70 71.5625ZM70 69.2188C70.3232 69.2188 70.5859 69.4815 70.5859 69.8047C70.5859 70.1279 70.3232 70.3906 70 70.3906C69.6768 70.3906 69.4141 70.1279 69.4141 69.8047C69.4141 69.4815 69.6768 69.2188 70 69.2188Z" fill="black"/>
<path d="M70 66.875C70.9692 66.875 71.7578 66.0864 71.7578 65.1172V55.7422C71.7578 54.7729 70.9692 53.9844 70 53.9844C69.0308 53.9844 68.2422 54.7729 68.2422 55.7422V65.1172C68.2422 66.0864 69.0308 66.875 70 66.875ZM69.4141 55.7422C69.4141 55.419 69.6768 55.1562 70 55.1562C70.3232 55.1562 70.5859 55.419 70.5859 55.7422V65.1172C70.5859 65.4404 70.3232 65.7031 70 65.7031C69.6768 65.7031 69.4141 65.4404 69.4141 65.1172V55.7422Z" fill="black"/>
</g>
<defs>
<clipPath id="clip0">
<rect width="40" height="40" fill="white" transform="translate(50 40)"/>
</clipPath>
</defs>
</svg>
