<svg width="130" height="110" viewBox="0 0 130 110" fill="none" xmlns="http://www.w3.org/2000/svg">
<path d="M114.461 36.8989H104.025V18.7434C104.025 17.8412 103.161 17.1097 102.095 17.1097H95.6176V1.63367C95.6176 0.731542 94.7531 0 93.6869 0H36.3108C35.2447 0 34.3801 0.731542 34.3801 1.63367V17.1097H27.9022C26.8361 17.1097 25.9715 17.8412 25.9715 18.7434V36.8987H15.5383C6.95676 36.8989 0 42.7852 0 50.0465V89.2831C0 90.1852 0.864549 90.9168 1.9307 90.9168H5.53718V96.1858C5.53718 97.0879 6.40173 97.8195 7.46788 97.8195H26.7802L24.2856 103.047C24.1193 103.396 24.0733 103.784 24.1972 104.145C24.4463 104.87 25.2154 105.334 26.0563 105.334H32.4354C33.5016 105.334 34.3661 104.602 34.3661 103.7C34.3661 102.798 33.5016 102.066 32.4354 102.066H28.9176L38.7399 81.4838H91.2575L101.08 102.066H83.3392H46.6582H41.4455C40.3794 102.066 39.5148 102.798 39.5148 103.7C39.5148 104.602 40.3794 105.334 41.4455 105.334H44.9824C45.8356 108.018 48.7349 110 52.1726 110H77.8249C81.2625 110 84.1619 108.018 85.0145 105.334H103.889C104.333 105.334 104.776 105.224 105.126 104.992C105.827 104.525 106.047 103.748 105.732 103.088L103.218 97.8197H122.532C123.598 97.8197 124.463 97.0881 124.463 96.186V90.917H128.069C129.135 90.917 130 90.1854 130 89.2833V50.0465C130 42.7852 123.043 36.8989 114.461 36.8989ZM77.8254 106.733H52.1728C50.9071 106.733 49.7924 106.174 49.1546 105.334H80.8431C80.2055 106.175 79.0909 106.733 77.8254 106.733ZM95.6179 20.377H100.164V36.8987H95.6179V20.377ZM38.2415 3.26734H91.7565V36.8987H38.2415V3.26734ZM29.8329 20.377H34.3801V36.8987H29.8329V20.377ZM28.3397 94.5521H9.39857V90.9168H30.0744L28.3397 94.5521ZM120.601 94.5521H101.659L99.9238 90.9168H120.601V94.5521ZM126.138 87.6494H122.532H98.3646L95.4223 81.4838H97.9081C98.9742 81.4838 99.8388 80.7523 99.8388 79.8502C99.8388 78.9481 98.9742 78.2165 97.9081 78.2165H92.5606H37.4376H32.0901C31.024 78.2165 30.1594 78.9481 30.1594 79.8502C30.1594 80.7523 31.024 81.4838 32.0901 81.4838H34.5759L31.6336 87.6494H7.46788H3.8614V50.0465C3.8614 44.5983 9.09947 40.166 15.5383 40.166H27.9025H36.3085C36.3093 40.166 36.31 40.166 36.3111 40.166H93.6872C93.6879 40.166 93.6887 40.166 93.6897 40.166H102.095H114.462C120.901 40.166 126.139 44.5983 126.139 50.0465V87.6494H126.138Z" fill="black"/>
<path d="M116.35 49.7842C116.243 47.3972 113.836 45.5436 111.013 45.5436H93.9609C92.8948 45.5436 92.0302 46.2751 92.0302 47.1772C92.0302 48.0794 92.8948 48.8109 93.9609 48.8109H111.081C111.787 48.8109 112.418 49.2462 112.486 49.8402C112.565 50.5217 111.931 51.0979 111.142 51.0979H18.9191C18.2137 51.0979 17.5827 50.6626 17.5142 50.0688C17.4357 49.3873 18.0692 48.8111 18.8586 48.8111H84.9503C86.0165 48.8111 86.881 48.0796 86.881 47.1775C86.881 46.2753 86.0165 45.5438 84.9503 45.5438H18.9866C16.1637 45.5438 13.7564 47.3975 13.6497 49.7844C13.5375 52.2937 15.9174 54.3655 18.8584 54.3655H111.141C114.082 54.365 116.462 52.2933 116.35 49.7842Z" fill="black"/>
<path d="M22.7197 56.2166H18.8583C15.9838 56.2166 13.6456 58.1953 13.6456 60.6273C13.6456 63.0593 15.9838 65.0382 18.8583 65.0382H22.7197C25.5942 65.0382 27.9327 63.0595 27.9327 60.6273C27.9327 58.195 25.5942 56.2166 22.7197 56.2166ZM22.7197 61.7707H18.8583C18.1131 61.7707 17.507 61.2576 17.507 60.6271C17.507 59.9965 18.1131 59.4837 18.8583 59.4837H22.7197C23.4649 59.4837 24.0713 59.9967 24.0713 60.6271C24.0713 61.2576 23.4652 61.7707 22.7197 61.7707Z" fill="black"/>
<path d="M39.9323 56.2166H36.0709C33.1964 56.2166 30.858 58.1953 30.858 60.6273C30.858 63.0593 33.1964 65.0382 36.0709 65.0382H39.9323C42.8067 65.0382 45.1449 63.0595 45.1449 60.6273C45.1449 58.195 42.8067 56.2166 39.9323 56.2166ZM39.9323 61.7707H36.0709C35.3257 61.7707 34.7194 61.2576 34.7194 60.6271C34.7194 59.9965 35.3257 59.4837 36.0709 59.4837H39.9323C40.6775 59.4837 41.2836 59.9967 41.2836 60.6271C41.2836 61.2576 40.6775 61.7707 39.9323 61.7707Z" fill="black"/>
</svg>
