<svg width="120" height="110" viewBox="0 0 120 110" fill="none" xmlns="http://www.w3.org/2000/svg">
<path d="M114.587 18.0469H90C89.0286 18.0469 88.2422 18.7678 88.2422 19.6582C88.2422 20.5486 89.0286 21.2695 90 21.2695H114.587C115.634 21.2695 116.484 22.0492 116.484 23.0084V85.058C116.484 86.0172 115.634 86.7969 114.587 86.7969H5.4126C4.36615 86.7969 3.51562 86.0172 3.51562 85.058V23.0084C3.51562 22.0492 4.36615 21.2695 5.4126 21.2695H44.0332V24.4922H8.78906C7.81769 24.4922 7.03125 25.2131 7.03125 26.1035V68.6787C7.03125 69.5683 7.81769 70.29 8.78906 70.29C9.76044 70.29 10.5469 69.5683 10.5469 68.6787V27.7148H44.0332V36.3589L36.5076 39.6546C35.907 39.9181 35.5078 40.4871 35.5078 41.109V67.3871C35.5078 68.0081 35.8969 68.5738 36.5076 68.8415L59.2419 78.7981C59.7345 79.0105 60.2902 78.9996 60.7581 78.7981L73.5388 73.2005C74.415 72.8169 74.7858 71.8543 74.3674 71.052C73.949 70.2489 72.8979 69.909 72.0227 70.2925L61.7578 74.7883V52.0811L80.9766 43.6645V66.3716L78.3655 67.5146C77.4893 67.8982 77.1185 68.8608 77.5369 69.6631C77.9553 70.4662 79.0054 70.8061 79.8807 70.4226L83.4924 68.8415C84.1031 68.5738 84.4922 68.0081 84.4922 67.3871V41.109C84.4922 40.4947 84.1022 39.9223 83.4924 39.6546L75.9668 36.3589V27.7148H109.453V80.3516H10.5469V75.5537C10.5469 74.6632 9.76044 73.9423 8.78906 73.9423C7.81769 73.9423 7.03125 74.6632 7.03125 75.5537V81.9629C7.03125 82.8533 7.81769 83.5742 8.78906 83.5742H111.211C112.182 83.5742 112.969 82.8533 112.969 81.9629V26.1035C112.969 25.2131 112.182 24.4922 111.211 24.4922H75.9668V21.2695H82.5C83.4714 21.2695 84.2578 20.5486 84.2578 19.6582C84.2578 18.7678 83.4714 18.0469 82.5 18.0469H75.9668V14.8242H91.7285C92.6999 14.8242 93.4863 14.1033 93.4863 13.2129V9.39102C95.5325 8.72551 97.002 6.93459 97.002 4.83398C97.002 2.16858 94.6362 0 91.7285 0C88.8208 0 86.4551 2.16858 86.4551 4.83398C86.4551 6.93459 87.9245 8.72551 89.9707 9.39102V11.6016H74.209C73.2376 11.6016 72.4512 12.3225 72.4512 13.2129V18.0469H61.7578V9.39102C63.804 8.72551 65.2734 6.93459 65.2734 4.83398C65.2734 2.16858 62.9077 0 60 0C57.0923 0 54.7266 2.16858 54.7266 4.83398C54.7266 6.93459 56.196 8.72551 58.2422 9.39102V18.0469H47.5488V13.2129C47.5488 12.3225 46.7624 11.6016 45.791 11.6016H30.0293V9.39102C32.0755 8.72551 33.5449 6.93459 33.5449 4.83398C33.5449 2.16858 31.1792 0 28.2715 0C25.3638 0 22.998 2.16858 22.998 4.83398C22.998 6.93459 24.4675 8.72551 26.5137 9.39102V13.2129C26.5137 14.1033 27.3001 14.8242 28.2715 14.8242H44.0332V18.0469H5.4126C2.42798 18.0469 0 20.2725 0 23.0084V85.058C0 87.7939 2.42798 90.0195 5.4126 90.0195H43.5223C42.8421 95.9303 38.5785 99.382 37.2345 100.332H29.7656C26.8579 100.332 24.4922 102.501 24.4922 105.166C24.4922 107.831 26.8579 110 29.7656 110H90.2344C93.1421 110 95.5078 107.831 95.5078 105.166C95.5078 102.501 93.1421 100.332 90.2344 100.332H82.7701C81.4435 99.3854 77.1652 95.9026 76.4795 90.0195H114.587C117.572 90.0195 120 87.7939 120 85.058V23.0084C120 20.2725 117.572 18.0469 114.587 18.0469ZM91.7285 3.22266C92.6981 3.22266 93.4863 3.94524 93.4863 4.83398C93.4863 5.72273 92.6981 6.44531 91.7285 6.44531C90.759 6.44531 89.9707 5.72273 89.9707 4.83398C89.9707 3.94524 90.759 3.22266 91.7285 3.22266ZM60 3.22266C60.9695 3.22266 61.7578 3.94524 61.7578 4.83398C61.7578 5.72273 60.9695 6.44531 60 6.44531C59.0305 6.44531 58.2422 5.72273 58.2422 4.83398C58.2422 3.94524 59.0305 3.22266 60 3.22266ZM28.2715 3.22266C29.241 3.22266 30.0293 3.94524 30.0293 4.83398C30.0293 5.72273 29.241 6.44531 28.2715 6.44531C27.3019 6.44531 26.5137 5.72273 26.5137 4.83398C26.5137 3.94524 27.3019 3.22266 28.2715 3.22266ZM47.5488 27.7148H58.2422V30.136L47.5488 34.8198V27.7148ZM78.6566 41.109L60 49.2789L41.3434 41.109L60 32.9382L78.6566 41.109ZM39.0234 43.6645L58.2422 52.0811V74.7883L39.0234 66.3716V43.6645ZM72.4512 34.8198L61.7578 30.136V27.7148H72.4512V34.8198ZM72.4512 21.2695V24.4922H61.7578V21.2695H72.4512ZM58.2422 21.2695V24.4922H47.5488V21.2695H58.2422ZM91.9922 105.166C91.9922 106.055 91.2039 106.777 90.2344 106.777H29.7656C28.7961 106.777 28.0078 106.055 28.0078 105.166C28.0078 104.277 28.7961 103.555 29.7656 103.555H90.2344C91.2039 103.555 91.9922 104.277 91.9922 105.166ZM77.7283 100.332H42.2717C44.3326 98.1257 46.6187 94.6873 47.0572 90.0195H72.9428C73.3813 94.6873 75.6674 98.1257 77.7283 100.332Z" fill="black"/>
</svg>
