<svg width="130" height="110" viewBox="0 0 130 110" fill="none" xmlns="http://www.w3.org/2000/svg">
<path d="M70.3572 48.5373C68.9924 47.4147 67.192 46.8241 65.2864 46.8666C61.6906 46.9524 58.7145 49.3984 58.5109 52.4352C58.3979 54.12 59.1167 55.7266 60.4964 56.9143L59.7842 61.9689C59.673 62.7587 59.967 63.5527 60.5912 64.1474C61.2153 64.7421 62.1123 65.0833 63.052 65.0833H67.9217C68.8614 65.0833 69.7584 64.7421 70.3825 64.1474C71.0066 63.5527 71.3007 62.7587 71.1895 61.9689L70.477 56.914C71.7526 55.8127 72.4742 54.3301 72.4742 52.7768C72.474 51.1659 71.7222 49.6603 70.3572 48.5373ZM67.4032 54.6492C66.6466 55.2035 66.2652 56.0349 66.3833 56.8734L67.0564 61.6483H63.9168L64.5899 56.8734C64.7082 56.0349 64.3274 55.2039 63.5715 54.6496C62.8788 54.1419 62.5112 53.4056 62.5632 52.6296C62.6486 51.359 63.895 50.3355 65.4006 50.2999C66.2015 50.2799 66.9561 50.5293 67.5276 50.9998C68.0999 51.4705 68.415 52.1015 68.415 52.7766C68.415 53.4952 68.0461 54.1778 67.4032 54.6492Z" fill="black"/>
<path d="M110.414 7.72342L70.1507 0.420879C67.0556 -0.140293 63.9173 -0.140293 60.8224 0.420879L20.5595 7.72342C16.1794 8.51791 12.9999 11.8456 12.9999 15.6361V56.6025C12.9999 87.7162 49.3674 104.617 60.5134 109.056C62.0937 109.685 63.7901 110 65.4864 110C67.1828 110 68.8791 109.685 70.4592 109.056C77.276 106.341 90.322 100.32 101.101 90.4918C112.296 80.2852 117.973 68.8832 117.973 56.6027V15.6363C117.973 11.8458 114.794 8.51791 110.414 7.72342ZM68.7306 105.949C66.6689 106.77 64.3037 106.77 62.2417 105.949C55.6907 103.34 43.1602 97.5586 32.8465 88.1555C22.3706 78.6045 17.0591 67.9888 17.0591 56.6027V15.6363C17.0591 13.4548 18.889 11.5393 21.4101 11.0819L61.6727 3.77932C62.9377 3.54986 64.2121 3.43514 65.4862 3.43514C66.7603 3.43514 68.0344 3.54986 69.2996 3.77932L109.563 11.0819C112.084 11.539 113.913 13.4544 113.913 15.6363V56.6027H113.914C113.914 85.6941 79.3301 101.728 68.7306 105.949Z" fill="black"/>
<path d="M99.5086 16.0804L69.9892 10.7267C67.0353 10.1907 63.9373 10.1907 60.9839 10.7267L31.4645 16.0804C27.6856 16.7658 24.9427 19.6367 24.9427 22.9071V56.6028C24.9427 66.9385 30.2054 76.6045 40.5843 85.3323C47.9103 91.4927 56.0795 95.7518 61.6425 98.2399C62.8227 98.7678 64.1519 99.0466 65.4867 99.0466C66.8215 99.0466 68.1507 98.7678 69.3308 98.2399C74.8939 95.7516 83.0631 91.4925 90.389 85.3323C100.768 76.6045 106.031 66.9385 106.031 56.6028V22.9071C106.03 19.6367 103.288 16.7658 99.5086 16.0804ZM101.972 56.6028H101.971C101.971 65.9903 97.112 74.8368 87.5278 82.8962C80.5565 88.7582 72.7527 92.8245 67.4339 95.2035C66.2385 95.7385 64.7346 95.7385 63.5392 95.2035C58.2204 92.8245 50.4166 88.7584 43.4453 82.8962C33.8614 74.8368 29.0016 65.9901 29.0016 56.6028V22.9071C29.0016 21.2457 30.3951 19.7869 32.3151 19.4389L61.8348 14.0852C63.0324 13.868 64.2613 13.7575 65.4864 13.7575C66.7118 13.7575 67.9402 13.8677 69.1384 14.0852L98.6578 19.4389C100.578 19.7871 101.971 21.2457 101.971 22.9071V56.6028H101.972Z" fill="black"/>
<path d="M83.9339 42.3429V39.9974C83.9339 31.3904 75.6584 24.3882 65.4867 24.3882C55.3147 24.3882 47.0394 31.3906 47.0394 39.9974V42.3429C44.8235 42.5017 43.0764 44.0758 43.0764 45.9912V68.6683C43.0764 70.6885 45.0188 72.3321 47.4065 72.3321H83.5665C85.9543 72.3321 87.8966 70.6885 87.8966 68.6683V45.9912C87.8966 44.0758 86.1498 42.5017 83.9339 42.3429ZM51.0978 39.9974H51.0983C51.0983 33.2842 57.5529 27.8229 65.4864 27.8229C73.4202 27.8229 79.8745 33.2844 79.8745 39.9974V42.327H76.0075V39.9974C76.0075 35.0885 71.2876 31.0945 65.4859 31.0945C59.6841 31.0945 54.9643 35.0883 54.9643 39.9974V42.327H51.0973V39.9974H51.0978ZM71.9488 39.9974V42.327H59.0237V39.9974C59.0237 36.9823 61.9226 34.5292 65.4861 34.5292C69.0497 34.5292 71.9488 36.9825 71.9488 39.9974ZM83.8377 68.6683H83.8375C83.8375 68.7947 83.7158 68.8976 83.5663 68.8976H47.4068C47.2572 68.8976 47.1356 68.7947 47.1356 68.6683V45.9912C47.1356 45.8648 47.2572 45.7617 47.4068 45.7617H83.5668C83.7163 45.7617 83.838 45.8648 83.838 45.9912V68.6683H83.8377Z" fill="black"/>
</svg>
