<svg width="135" height="100" viewBox="0 0 135 100" fill="none" xmlns="http://www.w3.org/2000/svg">
<path d="M71.1681 65.2935C71.8245 65.2935 72.3562 64.6949 72.3562 63.9568V7.34448C72.3562 3.29484 69.4278 0 65.828 0H14.1725C10.5728 0 7.64435 3.29484 7.64435 7.34448V82.6555C7.64435 86.7052 10.5728 90 14.1726 90H65.828C69.4278 90 72.3564 86.7052 72.3564 82.6555V69.0381C72.3564 68.3 71.8245 67.7015 71.1683 67.7015C70.512 67.7015 69.9802 68.3 69.9802 69.0381V82.6555C69.9802 85.2312 68.1175 87.3267 65.828 87.3267H14.1725C11.8829 87.3267 10.0204 85.2312 10.0204 82.6555V7.34448C10.0204 4.76876 11.8829 2.67328 14.1725 2.67328H65.8278C68.1173 2.67328 69.98 4.76876 69.98 7.34448V63.957C69.98 64.6951 70.5119 65.2935 71.1681 65.2935Z" fill="black"/>
<path d="M66.963 11.8057H21.7534C21.0973 11.8057 20.5652 12.4042 20.5652 13.1423C20.5652 13.8804 21.0973 14.4789 21.7534 14.4789H65.7749V75.5208H14.2252V14.4789H17.2368C17.8931 14.4789 18.4249 13.8804 18.4249 13.1423C18.4249 12.4042 17.8929 11.8057 17.2368 11.8057H13.0371C12.381 11.8057 11.849 12.4042 11.849 13.1423V76.8576C11.849 77.5957 12.381 78.1942 13.0371 78.1942H66.963C67.6191 78.1942 68.1511 77.5957 68.1511 76.8576V13.1423C68.1511 12.4042 67.6194 11.8057 66.963 11.8057Z" fill="black"/>
<path d="M26.0098 16.9548H20.124C18.2282 16.9548 16.6857 18.69 16.6857 20.8229V27.444C16.6857 29.5768 18.2281 31.3119 20.124 31.3119H26.0095C27.9052 31.3119 29.4476 29.5768 29.4476 27.444V20.8229H29.4477C29.4479 18.69 27.9056 16.9548 26.0098 16.9548ZM26.0098 28.6388H20.124C19.5385 28.6388 19.062 28.1029 19.062 27.4442V20.8229C19.062 20.1642 19.5384 19.6281 20.124 19.6281H26.0095C26.5949 19.6281 27.0713 20.1641 27.0713 20.8229V27.4442H27.0715C27.0716 28.1029 26.5952 28.6388 26.0098 28.6388Z" fill="black"/>
<path d="M59.8763 16.9548H53.9905C52.0947 16.9548 50.5524 18.69 50.5524 20.8229V27.444C50.5524 29.5768 52.0947 31.3119 53.9905 31.3119H59.8763C61.7722 31.3119 63.3145 29.5768 63.3145 27.444V20.8229C63.3147 18.69 61.7722 16.9548 59.8763 16.9548ZM60.9381 27.4442C60.9381 28.1029 60.4616 28.6388 59.8761 28.6388H53.9906C53.4052 28.6388 52.9288 28.1029 52.9288 27.4442V20.8229C52.9288 20.1642 53.4052 19.6281 53.9906 19.6281H59.8761C60.4616 19.6281 60.9381 20.1641 60.9381 20.8229V27.4442Z" fill="black"/>
<path d="M42.943 16.9548H37.0576C35.1618 16.9548 33.6193 18.69 33.6193 20.8229V27.444C33.6193 29.5768 35.1617 31.3119 37.0576 31.3119H42.943C44.8388 31.3119 46.3812 29.5768 46.3812 27.444V20.8229C46.3812 18.69 44.8388 16.9548 42.943 16.9548ZM44.0049 27.4442C44.0049 28.1029 43.5285 28.6388 42.943 28.6388H37.0576C36.472 28.6388 35.9956 28.1029 35.9956 27.4442V20.8229C35.9956 20.1642 36.472 19.6281 37.0576 19.6281H42.943C43.5285 19.6281 44.0049 20.1641 44.0049 20.8229V27.4442Z" fill="black"/>
<path d="M26.0098 35.5535H20.124C18.2282 35.5535 16.6857 37.2886 16.6857 39.4213V46.0428C16.6857 48.1756 18.2281 49.9107 20.124 49.9107H26.0095C27.9052 49.9107 29.4476 48.1756 29.4476 46.0428V39.4213C29.4479 37.2886 27.9056 35.5535 26.0098 35.5535ZM26.0098 47.2374H20.124C19.5385 47.2374 19.062 46.7015 19.062 46.0428V39.4213C19.062 38.7627 19.5384 38.2267 20.124 38.2267H26.0095C26.5949 38.2267 27.0713 38.7627 27.0713 39.4213V46.0428H27.0715C27.0716 46.7015 26.5952 47.2374 26.0098 47.2374Z" fill="black"/>
<path d="M42.627 35.5535H37.3734C35.3034 35.5535 33.6192 37.4482 33.6192 39.777V45.6872H33.6194C33.6194 48.016 35.3036 49.9107 37.3736 49.9107H40.2718C40.9282 49.9107 41.46 49.3122 41.46 48.5741C41.46 47.836 40.9281 47.2374 40.2718 47.2374H37.3736C36.6137 47.2374 35.9956 46.542 35.9956 45.6872V39.777C35.9956 38.9221 36.6137 38.2267 37.3736 38.2267H42.6271C43.387 38.2267 44.0051 38.9221 44.0051 39.777V45.6872C44.0051 46.1014 43.8618 46.4907 43.6017 46.7832C43.1374 47.3053 43.1374 48.1515 43.6015 48.6736C44.0656 49.1955 44.8179 49.1958 45.2817 48.6737C45.9909 47.8762 46.3812 46.8154 46.3812 45.687V39.7768C46.381 37.4482 44.697 35.5535 42.627 35.5535Z" fill="black"/>
<path d="M40.0003 79.0834C38.1497 79.0834 36.644 80.777 36.644 82.859C36.644 84.9407 38.1497 86.6346 40.0003 86.6346C41.8509 86.6346 43.3565 84.9407 43.3565 82.859C43.3565 80.777 41.8511 79.0834 40.0003 79.0834ZM40.0003 83.9613C39.46 83.9613 39.0203 83.4666 39.0203 82.859C39.0203 82.2511 39.4598 81.7566 40.0003 81.7566C40.5408 81.7566 40.9803 82.2511 40.9803 82.859C40.9801 83.4666 40.5408 83.9613 40.0003 83.9613Z" fill="black"/>
<path d="M115.039 20H84.9609C82.1339 20 79.834 22.6284 79.834 25.8594V94.1406C79.834 97.3716 82.1339 100 84.9609 100H115.039C117.866 100 120.166 97.3716 120.166 94.1406V25.8594C120.166 22.6284 117.866 20 115.039 20ZM118.115 83.5938H89.0625C88.4962 83.5938 88.0371 84.1184 88.0371 84.7656C88.0371 85.4128 88.4962 85.9375 89.0625 85.9375H118.115V94.1406C118.115 96.0792 116.735 97.6562 115.039 97.6562H84.9609C83.2647 97.6562 81.8848 96.0792 81.8848 94.1406V85.9375H84.9609C85.5272 85.9375 85.9863 85.4128 85.9863 84.7656C85.9863 84.1184 85.5272 83.5938 84.9609 83.5938H81.8848V31.7188H118.115V83.5938ZM118.115 29.375H81.8848V25.8594C81.8848 23.9208 83.2647 22.3438 84.9609 22.3438H115.039C116.735 22.3438 118.115 23.9208 118.115 25.8594V29.375Z" fill="black"/>
<path d="M104.102 24.6875H100C99.4337 24.6875 98.9746 25.2122 98.9746 25.8594C98.9746 26.5066 99.4337 27.0312 100 27.0312H104.102C104.668 27.0312 105.127 26.5066 105.127 25.8594C105.127 25.2122 104.668 24.6875 104.102 24.6875Z" fill="black"/>
<path d="M100 88.2812C98.3037 88.2812 96.9238 89.8583 96.9238 91.7969C96.9238 93.7355 98.3037 95.3125 100 95.3125C101.696 95.3125 103.076 93.7355 103.076 91.7969C103.076 89.8583 101.696 88.2812 100 88.2812ZM100 92.9688C99.4345 92.9688 98.9746 92.4431 98.9746 91.7969C98.9746 91.1506 99.4345 90.625 100 90.625C100.565 90.625 101.025 91.1506 101.025 91.7969C101.025 92.4431 100.565 92.9688 100 92.9688Z" fill="black"/>
<path d="M95.8984 27.0312C96.4647 27.0312 96.9238 26.5066 96.9238 25.8594C96.9238 25.2122 96.4647 24.6875 95.8984 24.6875C95.3321 24.6875 94.873 25.2122 94.873 25.8594C94.873 26.5066 95.3321 27.0312 95.8984 27.0312Z" fill="black"/>
</svg>
