<svg width="140" height="130" viewBox="0 0 140 130" fill="none" xmlns="http://www.w3.org/2000/svg">
<path d="M133.565 22.3885H6.43453C2.88668 22.3885 0 25.069 0 28.3635V93.4945C0 96.7892 2.88668 99.4697 6.43453 99.4697H43.8383V103.802H32.7376C31.605 103.802 30.6868 104.655 30.6868 105.707C30.6868 106.758 31.605 107.611 32.7376 107.611H116.03C119.578 107.611 122.465 104.93 122.465 101.636V99.4697H133.565C137.114 99.4697 140 96.7892 140 93.4945V28.3635C140 25.069 137.113 22.3885 133.565 22.3885ZM47.9399 103.802V99.4697H76.717V101.636C76.717 102.4 76.8739 103.13 77.1567 103.802H47.9399ZM118.363 101.636C118.363 102.831 117.316 103.802 116.03 103.802H83.1515C81.865 103.802 80.8186 102.83 80.8186 101.636V77.2117C80.8186 76.0171 81.8653 75.0454 83.1515 75.0454H116.03C117.317 75.0454 118.363 76.0174 118.363 77.2117V101.636ZM135.898 93.4947C135.898 94.6894 134.852 95.6613 133.565 95.6613H122.465V77.212C122.465 73.9173 119.578 71.2371 116.03 71.2371H83.1515C79.6034 71.2371 76.717 73.9176 76.717 77.212V95.6613H6.43453C5.14801 95.6613 4.10156 94.6894 4.10156 93.4947V28.3635C4.10156 27.1688 5.14828 26.1971 6.43453 26.1971H133.565C134.852 26.1971 135.898 27.1691 135.898 28.3635V93.4947Z" fill="black"/>
<path d="M129.181 30.5302H10.818C9.68542 30.5302 8.76721 31.3828 8.76721 32.4344V89.4242C8.76721 90.4759 9.68542 91.3285 10.818 91.3285H69.9997C71.1323 91.3285 72.0505 90.4759 72.0505 89.4242C72.0505 88.3725 71.1323 87.5199 69.9997 87.5199H12.8688V34.3387H127.13V89.4242C127.13 90.4759 128.049 91.3285 129.181 91.3285C130.314 91.3285 131.232 90.4759 131.232 89.4242V32.4344C131.232 31.3825 130.314 30.5302 129.181 30.5302Z" fill="black"/>
<path d="M96.3024 83.4493H87.5349C86.4023 83.4493 85.4841 84.302 85.4841 85.3536C85.4841 86.4053 86.4023 87.2579 87.5349 87.2579H89.8679V93.4949C89.8679 94.5466 90.7861 95.3992 91.9186 95.3992C93.0512 95.3992 93.9694 94.5466 93.9694 93.4949V87.2579H96.3024C97.4349 87.2579 98.3531 86.4053 98.3531 85.3536C98.3531 84.302 97.4349 83.4493 96.3024 83.4493Z" fill="black"/>
<path d="M112.564 83.6503C111.551 83.18 110.319 83.5611 109.812 84.5019L107.263 89.2367L104.713 84.5019C104.206 83.5611 102.974 83.1795 101.962 83.6503C100.948 84.1207 100.538 85.2643 101.044 86.2051L105.428 94.3463C105.776 94.9915 106.486 95.399 107.263 95.399C108.04 95.399 108.75 94.9915 109.097 94.3463L113.481 86.2051C113.987 85.2643 113.577 84.1205 112.564 83.6503Z" fill="black"/>
</svg>
